<svg width="12" height="12" viewBox="0 0 12 12" fill="none" xmlns="http://www.w3.org/2000/svg">
<path d="M1.75735 11.6569L5.99999 7.41421L10.2426 11.6569C10.633 12.0472 11.2665 12.0472 11.6568 11.6569C12.0472 11.2665 12.0472 10.633 11.6568 10.2426L7.4142 6L11.6568 1.75736C12.0472 1.36704 12.0472 0.733469 11.6568 0.343146C11.2665 -0.0471771 10.633 -0.0471771 10.2426 0.343146L5.99999 4.58579L1.75735 0.343146C1.36702 -0.0471771 0.733456 -0.0471771 0.343133 0.343146C-0.0471895 0.733469 -0.0471895 1.36704 0.343133 1.75736L4.58577 6L0.343133 10.2426C-0.0471895 10.633 -0.0471895 11.2665 0.343133 11.6569C0.733456 12.0472 1.36702 12.0472 1.75735 11.6569Z" fill="white"/>
</svg>
