<svg width="24" height="24" viewBox="0 0 24 24" fill="none" xmlns="http://www.w3.org/2000/svg">
<path d="M15.5161 3.984H18.9851V6H5.01611V3.984H8.48511L9.51611 3H14.4851L15.5161 3.984ZM8.43811 11.859L10.5941 14.015L8.48511 16.124L9.89111 17.53L12.0001 15.421L14.1091 17.53L15.5151 16.124L13.4061 14.015L15.5151 11.859L14.1091 10.453L12.0001 12.609L9.89111 10.453L8.43811 11.859ZM6.00011 18.984V6.984H18.0001V18.984C18.0001 19.5153 17.7971 19.984 17.3911 20.39C16.9851 20.796 16.5164 20.999 15.9851 20.999H8.01611C7.48478 20.999 7.01611 20.796 6.61011 20.39C6.20411 19.984 6.00111 19.5153 6.00111 18.984H6.00011Z" fill="#313131" fill-opacity="0.73"/>
</svg>
