<svg width="24" height="22" viewBox="0 0 24 22" fill="none" xmlns="http://www.w3.org/2000/svg">
<path d="M20.1329 4.31699C21.0129 5.19799 21.452 6.34799 21.452 7.50099C21.452 8.65399 21.0119 9.80399 20.1329 10.683L12 18.816L3.86695 10.683C2.98795 9.80399 2.54895 8.65399 2.54895 7.49999C2.54895 6.34599 2.98795 5.19599 3.86695 4.31699C4.74595 3.43799 5.89595 2.99899 7.04995 2.99899C8.20395 2.99899 9.35395 3.43799 10.233 4.31699L11.293 5.37699C11.684 5.76799 12.3169 5.76799 12.707 5.37699L13.769 4.31499C14.648 3.43599 15.798 2.99699 16.951 2.99799C18.104 2.99899 19.254 3.43799 20.1329 4.31699ZM21.547 2.90299C20.278 1.63399 18.613 0.998987 16.951 0.997987C15.289 0.996987 13.624 1.63199 12.354 2.90099L12 3.25599L11.647 2.90299C10.378 1.63399 8.71195 0.998987 7.04995 0.998987C5.38795 0.998987 3.72195 1.63399 2.45295 2.90299C1.18395 4.17199 0.54895 5.83799 0.54895 7.49999C0.54895 9.16199 1.18395 10.828 2.45295 12.097L11.293 20.937C11.684 21.328 12.3169 21.328 12.707 20.937L21.547 12.097C22.816 10.828 23.451 9.16299 23.452 7.50099C23.4529 5.83899 22.818 4.17399 21.547 2.90299Z" fill="black"/>
</svg>
