<svg width="24" height="24" viewBox="0 0 24 24" fill="none" xmlns="http://www.w3.org/2000/svg">
<path d="M6.98398 15.0001H15V17.0161H6.98398V15.0001ZM6.98398 12.0001H15V14.0161H6.98398V12.0001ZM6.98398 9.00014H15V11.0161H6.98398V9.00014ZM17.016 19.2191V12.0001H18.985V18.9841C18.985 19.5155 18.7896 19.9841 18.399 20.3901C18.0083 20.7961 17.5473 20.9991 17.016 20.9991H5.01598C4.48464 20.9991 4.01598 20.7961 3.60998 20.3901C3.20398 19.9841 3.00098 19.5155 3.00098 18.9841V6.98414C3.00098 6.4528 3.20398 5.9918 3.60998 5.60114C4.01598 5.21047 4.48464 5.01514 5.01598 5.01514H12V6.98414H5.01598V19.2181L17.016 19.2191Z" fill="white"/>
<path d="M13.5332 5.10864L19.0748 10.6503C19.1454 10.7215 19.2382 10.7769 19.3461 10.8037L21.6794 11.3871C21.7669 11.4098 21.8649 11.4116 21.9623 11.3871C22.275 11.3089 22.4652 10.9921 22.387 10.6795L21.8037 8.34614C21.7798 8.24873 21.7284 8.15364 21.6503 8.07489L16.1086 2.53323C15.7533 2.17798 15.2861 2.00006 14.8212 2.00006C14.3563 2.00006 13.889 2.17798 13.5338 2.53323C13.1785 2.88848 13 3.35631 13 3.82123C13 4.28614 13.1779 4.75339 13.5332 5.10864Z" fill="white"/>
</svg>
