<svg width="22" height="22" viewBox="0 0 22 22" fill="none" xmlns="http://www.w3.org/2000/svg">
<path d="M11.897 0.556986C11.805 0.367986 11.649 0.204986 11.443 0.102986C10.948 -0.141014 10.348 0.0619863 10.104 0.556986L7.24596 6.34599L0.854962 7.28099C0.646962 7.30999 0.443963 7.40799 0.283963 7.57199C-0.102037 7.96799 -0.0930375 8.60099 0.301963 8.98599L4.92496 13.489L3.83396 19.851C3.79796 20.058 3.82796 20.282 3.93496 20.485C4.19196 20.974 4.79696 21.162 5.28596 20.905L11 17.9L16.715 20.905C16.901 21.004 17.123 21.044 17.349 21.006C17.893 20.913 18.259 20.396 18.166 19.851L17.075 13.489L21.698 8.98599C21.849 8.83999 21.957 8.64199 21.99 8.41399C22.07 7.86799 21.692 7.35999 21.145 7.27999L14.755 6.34599L11.897 0.556986ZM11 3.25899L13.193 7.70299C13.344 8.00799 13.629 8.20199 13.945 8.24999L18.851 8.96699L15.302 12.424C15.058 12.662 14.961 12.993 15.014 13.309L15.851 18.192L11.465 15.885C11.164 15.727 10.818 15.737 10.534 15.885L6.14796 18.192L6.98496 13.309C7.04296 12.973 6.92596 12.648 6.69696 12.424L3.14796 8.96699L8.05496 8.24899C8.39096 8.19999 8.66396 7.98899 8.80696 7.70299L11 3.25899Z" fill="black"/>
</svg>
