<svg width="24" height="24" viewBox="0 0 24 24" fill="none" xmlns="http://www.w3.org/2000/svg">
<g clip-path="url(#clip0_133_3)">
<path d="M11 14.4139V20.9999C11 21.5519 11.448 21.9999 12 21.9999C12.552 21.9999 13 21.5519 13 20.9999V14.4139L15.293 16.7069C15.684 17.0979 16.317 17.0979 16.707 16.7069C17.097 16.3159 17.098 15.6829 16.707 15.2929L12.707 11.2929C12.611 11.1969 12.501 11.1249 12.383 11.0759C12.261 11.0249 12.13 10.9999 12 10.9999C11.744 10.9999 11.488 11.0979 11.293 11.2929L7.29296 15.2929C6.90196 15.6839 6.90196 16.3169 7.29296 16.7069C7.68396 17.0969 8.31696 17.0979 8.70696 16.7069L11 14.4139ZM20.869 19.2679C22.323 18.4749 23.32 17.1659 23.753 15.6939C24.186 14.2219 24.058 12.5819 23.265 11.1279C22.586 9.88294 21.528 8.97194 20.305 8.46494C19.581 8.16494 18.801 8.00594 18.007 7.99994H17.48C16.755 5.94294 15.336 4.29194 13.563 3.24794C11.58 2.07994 9.14796 1.66694 6.74196 2.28894C4.33596 2.91094 2.40896 4.45094 1.23996 6.43394C0.0709645 8.41694 -0.341036 10.8489 0.280964 13.2549C0.652964 14.6919 1.35396 15.9649 2.25596 16.9679C2.62496 17.3789 3.25796 17.4119 3.66796 17.0429C4.07796 16.6739 4.11196 16.0409 3.74296 15.6309C3.05496 14.8659 2.50796 13.8809 2.21696 12.7539C1.73296 10.8819 2.05296 8.99294 2.96296 7.44894C3.87296 5.90494 5.36996 4.70894 7.24196 4.22494C9.11396 3.74094 11.003 4.06094 12.547 4.97094C14.091 5.88094 15.287 7.37794 15.771 9.24994C15.887 9.68494 16.277 9.99994 16.74 9.99994H17.993C18.529 10.0039 19.054 10.1109 19.538 10.3119C20.353 10.6499 21.056 11.2549 21.508 12.0849C22.037 13.0549 22.123 14.1459 21.833 15.1289C21.543 16.1119 20.88 16.9829 19.91 17.5109C19.425 17.7749 19.246 18.3829 19.511 18.8679C19.776 19.3529 20.383 19.5319 20.868 19.2669L20.869 19.2679Z" fill="#313131" fill-opacity="0.6"/>
</g>
<defs>
<clipPath id="clip0_133_3">
<rect width="24" height="24" fill="white"/>
</clipPath>
</defs>
</svg>
