<svg width="22" height="22" viewBox="0 0 22 22" fill="none" xmlns="http://www.w3.org/2000/svg">
<path d="M18 4.414L19.586 6L17.5 8.086L15.914 6.5L18 4.414ZM9.68802 11.323C10.572 12.196 11.019 13.343 11.027 14.495C11.035 15.648 10.603 16.801 9.73002 17.686C8.85702 18.571 7.71003 19.018 6.55703 19.025C5.40403 19.032 4.25103 18.601 3.36603 17.728L3.32402 17.686C2.45002 16.801 2.01902 15.648 2.02702 14.495C2.03502 13.342 2.48203 12.195 3.36603 11.322C4.24503 10.455 5.38903 10.023 6.53503 10.026C7.67603 10.028 8.81303 10.461 9.68703 11.322L9.68802 11.323ZM17.293 2.293C16.902 2.684 16.902 3.317 17.293 3.707L18 4.414L19.414 3L18.707 2.293C18.316 1.902 17.683 1.902 17.293 2.293ZM17.293 2.293C16.902 2.684 16.902 3.317 17.293 3.707C17.684 4.097 18.317 4.098 18.707 3.707C19.097 3.316 19.098 2.683 18.707 2.293C18.316 1.903 17.683 1.902 17.293 2.293L13.793 5.793C13.402 6.184 13.402 6.817 13.793 7.207L14.5 7.914L15.914 6.5L15.207 5.793C14.816 5.402 14.183 5.402 13.793 5.793C13.403 6.184 13.402 6.817 13.793 7.207C14.184 7.597 14.817 7.598 15.207 7.207C15.597 6.816 15.598 6.183 15.207 5.793C14.816 5.403 14.183 5.402 13.793 5.793L10.332 9.254C9.20302 8.438 7.87003 8.028 6.53903 8.025C4.88703 8.022 3.23102 8.645 1.96202 9.898C0.685025 11.158 0.039025 12.819 0.027025 14.481C0.015025 16.143 0.640025 17.813 1.90003 19.09L1.96202 19.152C3.23902 20.412 4.90903 21.036 6.57103 21.025C8.23303 21.014 9.89402 20.368 11.154 19.09C12.414 17.812 13.038 16.143 13.027 14.481C13.018 13.136 12.593 11.792 11.754 10.66L14.5 7.914L16.793 10.207C17.184 10.598 17.817 10.598 18.207 10.207L21.707 6.707C22.098 6.316 22.098 5.683 21.707 5.293L19.414 3L20.707 1.707C21.098 1.316 21.098 0.682997 20.707 0.292997C20.316 -0.0970028 19.683 -0.0980028 19.293 0.292997L17.293 2.293Z" fill="black"/>
</svg>
