<svg width="24" height="24" viewBox="0 0 24 24" fill="none" xmlns="http://www.w3.org/2000/svg">
<path d="M15 4H19C19.276 4 19.525 4.111 19.707 4.293C19.889 4.475 20 4.724 20 5V19C20 19.276 19.889 19.525 19.707 19.707C19.525 19.889 19.276 20 19 20H15C14.448 20 14 20.448 14 21C14 21.552 14.448 22 15 22H19C19.828 22 20.58 21.663 21.121 21.121C21.662 20.579 22 19.828 22 19V5C22 4.172 21.663 3.42 21.121 2.879C20.579 2.338 19.828 2 19 2H15C14.448 2 14 2.448 14 3C14 3.552 14.448 4 15 4ZM12.586 11H3C2.448 11 2 11.448 2 12C2 12.552 2.448 13 3 13H12.586L9.293 16.293C8.902 16.684 8.902 17.317 9.293 17.707C9.684 18.097 10.317 18.098 10.707 17.707L15.707 12.707C15.803 12.611 15.875 12.501 15.924 12.383C15.973 12.265 16 12.136 16 12C16 11.87 15.975 11.739 15.924 11.617C15.875 11.499 15.803 11.389 15.707 11.293L10.707 6.293C10.316 5.902 9.683 5.902 9.293 6.293C8.903 6.684 8.902 7.317 9.293 7.707L12.586 11Z" fill="white"/>
</svg>
