<svg width="22" height="18" viewBox="0 0 22 18" fill="none" xmlns="http://www.w3.org/2000/svg">
<path d="M2 4.921L10.427 10.82C10.767 11.055 11.222 11.066 11.574 10.82L20 4.921V15C20 15.272 19.89 15.521 19.705 15.705C19.52 15.889 19.272 16 19 16H3C2.728 16 2.479 15.89 2.295 15.705C2.111 15.52 2 15.272 2 15V4.921ZM0 3.012V15C0 15.828 0.34 16.579 0.88 17.12C1.42 17.661 2.172 18 3 18H19C19.828 18 20.579 17.66 21.12 17.12C21.661 16.58 22 15.828 22 15V3.012C22 3.002 22 2.992 22 2.982C21.995 2.161 21.657 1.417 21.12 0.88C20.579 0.34 19.828 0 19 0H3C2.172 0 1.421 0.34 0.88 0.88C0.343 1.417 0.005 2.161 0 2.983C0 2.988 0 2.994 0 3V3.012ZM19.894 2.554L11 8.779L2.106 2.554C2.154 2.458 2.218 2.371 2.294 2.295C2.479 2.11 2.728 2 3 2H19C19.272 2 19.521 2.11 19.705 2.295C19.781 2.371 19.845 2.459 19.893 2.554H19.894Z" fill="#313131" fill-opacity="0.6"/>
</svg>
