<svg width="24" height="24" viewBox="0 0 24 24" fill="none" xmlns="http://www.w3.org/2000/svg">
<path d="M12.897 1.5568C12.805 1.3678 12.649 1.2048 12.443 1.1028C11.948 0.858803 11.348 1.0618 11.104 1.5568L8.24599 7.3458L1.85499 8.2808C1.64699 8.3098 1.44399 8.4078 1.28399 8.5718C0.897993 8.9678 0.906993 9.6008 1.30199 9.9858L5.92499 14.4888L4.83399 20.8508C4.79799 21.0578 4.82799 21.2818 4.93499 21.4848C5.19199 21.9738 5.79699 22.1618 6.28599 21.9048L12 18.8998L17.715 21.9048C17.901 22.0038 18.123 22.0438 18.349 22.0058C18.893 21.9128 19.259 21.3958 19.166 20.8508L18.075 14.4888L22.698 9.9858C22.849 9.8398 22.957 9.6418 22.99 9.4138C23.07 8.8678 22.692 8.3598 22.145 8.2798L15.755 7.3458L12.897 1.5568ZM12 4.2588L14.193 8.7028C14.344 9.0078 14.629 9.2018 14.945 9.2498L19.851 9.9668L16.302 13.4238C16.058 13.6618 15.961 13.9928 16.014 14.3088L16.851 19.1918L12.465 16.8848C12.164 16.7268 11.818 16.7368 11.534 16.8848L7.14799 19.1918L7.98499 14.3088C8.04299 13.9728 7.92599 13.6478 7.69699 13.4238L4.14799 9.9668L9.05499 9.2488C9.39099 9.1998 9.66399 8.9888 9.80699 8.7028L12 4.2588Z" fill="#313131" fill-opacity="0.73"/>
</svg>
