<svg width="24" height="24" viewBox="0 0 24 24" fill="none" xmlns="http://www.w3.org/2000/svg">
<path d="M7.5 19C7.5 20.381 6.381 21.5 5 21.5C3.619 21.5 2.5 20.381 2.5 19C2.5 17.619 3.619 16.5 5 16.5C6.381 16.5 7.5 17.619 7.5 19Z" fill="black"/>
<path d="M7.5 12C7.5 13.381 6.381 14.5 5 14.5C3.619 14.5 2.5 13.381 2.5 12C2.5 10.619 3.619 9.5 5 9.5C6.381 9.5 7.5 10.619 7.5 12Z" fill="black"/>
<path d="M7.5 5C7.5 6.381 6.381 7.5 5 7.5C3.619 7.5 2.5 6.381 2.5 5C2.5 3.619 3.619 2.5 5 2.5C6.381 2.5 7.5 3.619 7.5 5Z" fill="black"/>
<path d="M14.5 19C14.5 20.381 13.381 21.5 12 21.5C10.619 21.5 9.5 20.381 9.5 19C9.5 17.619 10.619 16.5 12 16.5C13.381 16.5 14.5 17.619 14.5 19Z" fill="black"/>
<path d="M14.5 12C14.5 13.381 13.381 14.5 12 14.5C10.619 14.5 9.5 13.381 9.5 12C9.5 10.619 10.619 9.5 12 9.5C13.381 9.5 14.5 10.619 14.5 12Z" fill="black"/>
<path d="M14.5 5C14.5 6.381 13.381 7.5 12 7.5C10.619 7.5 9.5 6.381 9.5 5C9.5 3.619 10.619 2.5 12 2.5C13.381 2.5 14.5 3.619 14.5 5Z" fill="black"/>
<path d="M21.5 19C21.5 20.381 20.381 21.5 19 21.5C17.619 21.5 16.5 20.381 16.5 19C16.5 17.619 17.619 16.5 19 16.5C20.381 16.5 21.5 17.619 21.5 19Z" fill="black"/>
<path d="M21.5 12C21.5 13.381 20.381 14.5 19 14.5C17.619 14.5 16.5 13.381 16.5 12C16.5 10.619 17.619 9.5 19 9.5C20.381 9.5 21.5 10.619 21.5 12Z" fill="black"/>
<path d="M21.5 5C21.5 6.381 20.381 7.5 19 7.5C17.619 7.5 16.5 6.381 16.5 5C16.5 3.619 17.619 2.5 19 2.5C20.381 2.5 21.5 3.619 21.5 5Z" fill="black"/>
</svg>
