<svg width="19" height="20" viewBox="0 0 19 20" fill="none" xmlns="http://www.w3.org/2000/svg">
<path d="M10.5379 11.4224C10.4113 11.5681 10.3346 11.7584 10.3346 11.9664V17.7955L8.61219 16.9534V11.9664C8.61305 11.7753 8.54588 11.5816 8.40894 11.4224L2.71715 4.84218H9.25682C9.39501 4.84218 9.52704 4.78499 9.62156 4.68418L10.2631 3.99996C10.5625 3.68064 10.3361 3.15796 9.89839 3.15796H0.861219C0.385826 3.15796 0 3.53523 0 4.00007C0 4.20807 0.0766485 4.39839 0.203248 4.54407L6.88975 12.2747V17.4739C6.88975 17.8014 7.08094 18.0861 7.36601 18.2267L10.8109 19.9109C11.2363 20.1189 11.7539 19.9505 11.9666 19.5345C12.0286 19.4116 12.0579 19.281 12.0571 19.1581V12.2747L13.3035 10.8336C13.5038 10.602 13.4508 10.2465 13.1917 10.0834L12.587 9.70262C12.3779 9.57099 12.1041 9.61179 11.9424 9.79864L10.5379 11.4224Z" fill="#313131" fill-opacity="0.73"/>
<path d="M18.4211 8.33333V7.45614C18.4211 6.85088 18.1751 6.30175 17.779 5.90526C17.3829 5.50877 16.8334 5.26316 16.2281 5.26316H12.7193C12.1141 5.26316 11.565 5.50921 11.1685 5.90526C10.772 6.30132 10.5264 6.85088 10.5264 7.45614V8.33333C10.5264 8.57544 10.7229 8.77193 10.965 8.77193C11.2071 8.77193 11.4036 8.57544 11.4036 8.33333V7.45614C11.4036 7.09254 11.5505 6.76447 11.7891 6.52588C12.0277 6.28728 12.3558 6.14035 12.7193 6.14035H16.2281C16.5917 6.14035 16.9198 6.28728 17.1584 6.52588C17.397 6.76447 17.5439 7.09254 17.5439 7.45614V8.33333C17.5439 8.57544 17.7404 8.77193 17.9825 8.77193C18.2246 8.77193 18.4211 8.57544 18.4211 8.33333ZM16.6667 2.19298C16.6667 1.58772 16.4207 1.0386 16.0246 0.642105C15.6286 0.245614 15.079 0 14.4737 0C13.8685 0 13.3193 0.246053 12.9229 0.642105C12.5264 1.03816 12.2808 1.58772 12.2808 2.19298C12.2808 2.79825 12.5268 3.34737 12.9229 3.74386C13.3189 4.14035 13.8685 4.38597 14.4737 4.38597C15.079 4.38597 15.6281 4.13991 16.0246 3.74386C16.4211 3.34781 16.6667 2.79825 16.6667 2.19298ZM15.7895 2.19298C15.7895 2.55658 15.6426 2.88465 15.404 3.12325C15.1654 3.36184 14.8373 3.50877 14.4737 3.50877C14.1101 3.50877 13.7821 3.36184 13.5435 3.12325C13.3049 2.88465 13.1579 2.55658 13.1579 2.19298C13.1579 1.82939 13.3049 1.50132 13.5435 1.26272C13.7821 1.02412 14.1101 0.877193 14.4737 0.877193C14.8373 0.877193 15.1654 1.02412 15.404 1.26272C15.6426 1.50132 15.7895 1.82939 15.7895 2.19298Z" fill="#313131" fill-opacity="0.73"/>
</svg>
