<svg width="19" height="19" viewBox="0 0 19 19" fill="none" xmlns="http://www.w3.org/2000/svg">
<path d="M10.5379 10.4224C10.4113 10.5681 10.3346 10.7584 10.3346 10.9664V16.7955L8.61219 15.9534V10.9664C8.61305 10.7753 8.54588 10.5816 8.40894 10.4224L2.71715 3.84218H9.25682C9.39501 3.84218 9.52704 3.78499 9.62156 3.68418L10.2631 2.99996C10.5625 2.68064 10.3361 2.15796 9.89839 2.15796H0.861219C0.385826 2.15796 0 2.53523 0 3.00007C0 3.20807 0.0766485 3.39839 0.203248 3.54407L6.88975 11.2747V16.4739C6.88975 16.8014 7.08094 17.0861 7.36601 17.2267L10.8109 18.9109C11.2363 19.1189 11.7539 18.9505 11.9666 18.5345C12.0286 18.4116 12.0579 18.281 12.0571 18.1581V11.2747L13.3035 9.83359C13.5038 9.60204 13.4508 9.24649 13.1917 9.08338L12.587 8.70262C12.3779 8.57099 12.1041 8.61179 11.9424 8.79864L10.5379 10.4224Z" fill="#313131" fill-opacity="0.73"/>
<path d="M16.0058 5.0063V2.9947H13.9942V5.0063H16.0058ZM19 2.9942H16.9884V5.0058H19V5.9884H16.9884V8H16.0058V5.9884H13.9942V8H13.0116V5.9884H11V5.0058H13.0116V2.9942H11V2.0116H13.0116V0H13.9942V2.0116H16.0058V0H16.9884V2.0116H19V2.9942Z" fill="#313131" fill-opacity="0.73"/>
</svg>
