<svg width="24" height="24" viewBox="0 0 24 24" fill="none" xmlns="http://www.w3.org/2000/svg">
<path d="M6.98398 15H15V17.016H6.98398V15ZM6.98398 12H15V14.016H6.98398V12ZM6.98398 8.99999H15V11.016H6.98398V8.99999ZM18.984 2.01599V5.01599H21.984V6.98499H18.984V9.98499H17.015V6.98499H14.015V5.01599H17.015V2.01599H18.984ZM17.016 19.219V12H18.985V18.984C18.985 19.5153 18.7896 19.984 18.399 20.39C18.0083 20.796 17.5473 20.999 17.016 20.999H5.01598C4.48464 20.999 4.01598 20.796 3.60998 20.39C3.20398 19.984 3.00098 19.5153 3.00098 18.984V6.98399C3.00098 6.45266 3.20398 5.99166 3.60998 5.60099C4.01598 5.21032 4.48464 5.01499 5.01598 5.01499H12V6.98399H5.01598V19.218H17.016V19.219Z" fill="black"/>
</svg>
