<svg width="24" height="24" viewBox="0 0 24 24" fill="none" xmlns="http://www.w3.org/2000/svg">
<g clip-path="url(#clip0_200_93)">
<path d="M6.98398 15.0001H15V17.0161H6.98398V15.0001ZM6.98398 12.0001H15V14.0161H6.98398V12.0001ZM6.98398 9.00014H15V11.0161H6.98398V9.00014ZM17.016 19.2191V12.0001H18.985V18.9841C18.985 19.5155 18.7896 19.9841 18.399 20.3901C18.0083 20.7961 17.5473 20.9991 17.016 20.9991H5.01598C4.48464 20.9991 4.01598 20.7961 3.60998 20.3901C3.20398 19.9841 3.00098 19.5155 3.00098 18.9841V6.98414C3.00098 6.4528 3.20398 5.9918 3.60998 5.60114C4.01598 5.21047 4.48464 5.01514 5.01598 5.01514H12V6.98414H5.01598V19.2181L17.016 19.2191Z" fill="#313131" fill-opacity="0.73"/>
<path d="M18.3174 4.00354L16.3156 2.00174L15.0018 3.31558L17.0036 5.31738L15.0018 7.31918L16.3156 8.63303L18.3174 6.63123L20.3192 8.63303L21.6331 7.31918L19.6313 5.31738L21.6331 3.31558L20.3192 2.00174L18.3174 4.00354Z" fill="#313131" fill-opacity="0.73"/>
</g>
<defs>
<clipPath id="clip0_200_93">
<rect width="24" height="24" fill="white"/>
</clipPath>
</defs>
</svg>
