<svg width="24" height="24" viewBox="0 0 24 24" fill="none" xmlns="http://www.w3.org/2000/svg">
<path d="M6.98398 15H15V17.016H6.98398V15ZM6.98398 12H15V14.016H6.98398V12ZM6.98398 9.00002H15V11.016H6.98398V9.00002ZM17.016 19.219V12H18.985V18.984C18.985 19.5153 18.7896 19.984 18.399 20.39C18.0083 20.796 17.5473 20.999 17.016 20.999H5.01598C4.48464 20.999 4.01598 20.796 3.60998 20.39C3.20398 19.984 3.00098 19.5153 3.00098 18.984V6.98402C3.00098 6.45268 3.20398 5.99168 3.60998 5.60101C4.01598 5.21035 4.48464 5.01501 5.01598 5.01501H12V6.98402H5.01598V19.218L17.016 19.219Z" fill="#313131"/>
<path d="M13.5332 5.10858L19.0748 10.6502C19.1454 10.7214 19.2382 10.7768 19.3461 10.8037L21.6794 11.387C21.7669 11.4097 21.8649 11.4115 21.9623 11.387C22.275 11.3088 22.4652 10.9921 22.387 10.6794L21.8037 8.34608C21.7798 8.24867 21.7284 8.15358 21.6503 8.07483L16.1086 2.53317C15.7533 2.17792 15.2861 2 14.8212 2C14.3563 2 13.889 2.17792 13.5338 2.53317C13.1785 2.88842 13 3.35625 13 3.82117C13 4.28608 13.1779 4.75333 13.5332 5.10858Z" fill="#313131"/>
</svg>
