<svg width="65" height="14" viewBox="0 0 65 14" fill="none" xmlns="http://www.w3.org/2000/svg">
<path d="M4.46895 13.93C3.60495 13.93 2.83695 13.786 2.16495 13.498C1.50495 13.21 0.862949 12.76 0.238949 12.148C0.0949492 12.028 0.0229492 11.884 0.0229492 11.716C0.0229492 11.572 0.0769492 11.44 0.184949 11.32C0.304949 11.2 0.436949 11.14 0.580949 11.14C0.724949 11.14 0.856949 11.2 0.976949 11.32C1.91295 12.352 3.08295 12.868 4.48695 12.868C5.35095 12.868 6.06495 12.664 6.62895 12.256C7.20495 11.848 7.49295 11.314 7.49295 10.654C7.49295 10.138 7.34895 9.71197 7.06095 9.37597C6.78495 9.02797 6.41895 8.74597 5.96295 8.52997C5.50695 8.31397 4.92495 8.09197 4.21695 7.86397C3.44895 7.63597 2.80095 7.38397 2.27295 7.10797C1.75695 6.83197 1.33695 6.46597 1.01295 6.00997C0.688949 5.54197 0.526949 4.95397 0.526949 4.24597C0.526949 3.60997 0.694949 3.04597 1.03095 2.55397C1.37895 2.06197 1.85895 1.67797 2.47095 1.40197C3.09495 1.11397 3.80895 0.969971 4.61295 0.969971C5.34495 0.969971 6.02895 1.09597 6.66495 1.34797C7.31295 1.58797 7.82895 1.93597 8.21295 2.39197C8.39295 2.59597 8.48295 2.76997 8.48295 2.91397C8.48295 3.04597 8.42295 3.17197 8.30295 3.29197C8.18295 3.39997 8.05095 3.45397 7.90695 3.45397C7.78695 3.45397 7.68495 3.41197 7.60095 3.32797C7.27695 2.94397 6.84495 2.63197 6.30495 2.39197C5.76495 2.15197 5.20095 2.03197 4.61295 2.03197C3.73695 2.03197 3.02295 2.22997 2.47095 2.62597C1.91895 3.00997 1.64295 3.53797 1.64295 4.20997C1.64295 4.90597 1.90695 5.43997 2.43495 5.81197C2.96295 6.18397 3.71895 6.52597 4.70295 6.83797C5.55495 7.08997 6.25095 7.34797 6.79095 7.61197C7.33095 7.87597 7.76895 8.25397 8.10495 8.74597C8.45295 9.22597 8.62695 9.86197 8.62695 10.654C8.62695 11.266 8.44695 11.824 8.08695 12.328C7.73895 12.82 7.24695 13.21 6.61095 13.498C5.98695 13.786 5.27295 13.93 4.46895 13.93Z" fill="#313131"/>
<path d="M20.6604 12.868C20.7444 12.988 20.7864 13.114 20.7864 13.246C20.7864 13.426 20.7204 13.57 20.5884 13.678C20.4684 13.774 20.3304 13.822 20.1744 13.822C20.0184 13.822 19.8864 13.756 19.7784 13.624L14.7564 7.30597L12.3084 9.60997V13.192C12.2964 13.36 12.2364 13.498 12.1284 13.606C12.0204 13.702 11.8884 13.75 11.7324 13.75C11.5644 13.75 11.4264 13.702 11.3184 13.606C11.2224 13.498 11.1744 13.36 11.1744 13.192V1.70797C11.1744 1.53997 11.2284 1.40797 11.3364 1.31197C11.4444 1.20397 11.5824 1.14997 11.7504 1.14997C11.9184 1.14997 12.0504 1.20397 12.1464 1.31197C12.2544 1.40797 12.3084 1.53997 12.3084 1.70797V8.24197L19.5804 1.36597C19.6884 1.24597 19.8204 1.18597 19.9764 1.18597C20.1204 1.18597 20.2404 1.23997 20.3364 1.34797C20.4444 1.45597 20.4984 1.57597 20.4984 1.70797C20.4984 1.85197 20.4444 1.97797 20.3364 2.08597L15.6204 6.49597L20.6604 12.868Z" fill="#313131"/>
<path d="M24.4549 13.192C24.4429 13.348 24.3829 13.48 24.2749 13.588C24.1669 13.696 24.0349 13.75 23.8789 13.75C23.7109 13.75 23.5729 13.702 23.4649 13.606C23.3689 13.498 23.3209 13.36 23.3209 13.192V1.70797C23.3209 1.53997 23.3749 1.40797 23.4829 1.31197C23.5909 1.20397 23.7289 1.14997 23.8969 1.14997C24.0529 1.14997 24.1849 1.20397 24.2929 1.31197C24.4009 1.41997 24.4549 1.55197 24.4549 1.70797V13.192Z" fill="#313131"/>
<path d="M34.7869 12.688C34.9429 12.688 35.0689 12.736 35.1649 12.832C35.2729 12.928 35.3269 13.054 35.3269 13.21C35.3269 13.366 35.2729 13.498 35.1649 13.606C35.0689 13.702 34.9429 13.75 34.7869 13.75H28.3609C28.2049 13.75 28.0729 13.702 27.9649 13.606C27.8689 13.498 27.8209 13.366 27.8209 13.21V1.68997C27.8209 1.53397 27.8749 1.40797 27.9829 1.31197C28.0909 1.20397 28.2289 1.14997 28.3969 1.14997C28.5529 1.14997 28.6849 1.20397 28.7929 1.31197C28.9009 1.40797 28.9549 1.53397 28.9549 1.68997V12.688H34.7869Z" fill="#313131"/>
<path d="M44.3669 12.688C44.5229 12.688 44.6489 12.736 44.7449 12.832C44.8529 12.928 44.9069 13.054 44.9069 13.21C44.9069 13.366 44.8529 13.498 44.7449 13.606C44.6489 13.702 44.5229 13.75 44.3669 13.75H37.9409C37.7849 13.75 37.6529 13.702 37.5449 13.606C37.4489 13.498 37.4009 13.366 37.4009 13.21V1.68997C37.4009 1.53397 37.4549 1.40797 37.5629 1.31197C37.6709 1.20397 37.8089 1.14997 37.9769 1.14997C38.1329 1.14997 38.2649 1.20397 38.3729 1.31197C38.4809 1.40797 38.5349 1.53397 38.5349 1.68997V12.688H44.3669Z" fill="#313131"/>
<path d="M54.109 8.61997C54.265 8.61997 54.391 8.67397 54.487 8.78197C54.583 8.87797 54.631 9.00397 54.631 9.15997C54.631 9.29197 54.583 9.41197 54.487 9.51997C54.391 9.61597 54.265 9.66397 54.109 9.66397H50.959V12.958C50.959 13.126 50.905 13.27 50.797 13.39C50.689 13.498 50.551 13.552 50.383 13.552C50.227 13.552 50.089 13.498 49.969 13.39C49.861 13.27 49.807 13.132 49.807 12.976V9.66397H46.675C46.519 9.66397 46.393 9.61597 46.297 9.51997C46.201 9.41197 46.153 9.27997 46.153 9.12397C46.153 8.97997 46.201 8.85997 46.297 8.76397C46.393 8.66797 46.519 8.61997 46.675 8.61997H49.807V5.34397C49.807 5.17597 49.861 5.03797 49.969 4.92997C50.077 4.82197 50.215 4.76797 50.383 4.76797C50.563 4.76797 50.701 4.82197 50.797 4.92997C50.905 5.02597 50.959 5.15797 50.959 5.32597V8.61997H54.109Z" fill="#313131"/>
<path d="M64.2164 8.61997C64.3724 8.61997 64.4984 8.67397 64.5944 8.78197C64.6904 8.87797 64.7384 9.00397 64.7384 9.15997C64.7384 9.29197 64.6904 9.41197 64.5944 9.51997C64.4984 9.61597 64.3724 9.66397 64.2164 9.66397H61.0664V12.958C61.0664 13.126 61.0124 13.27 60.9044 13.39C60.7964 13.498 60.6584 13.552 60.4904 13.552C60.3344 13.552 60.1964 13.498 60.0764 13.39C59.9684 13.27 59.9144 13.132 59.9144 12.976V9.66397H56.7824C56.6264 9.66397 56.5004 9.61597 56.4044 9.51997C56.3084 9.41197 56.2604 9.27997 56.2604 9.12397C56.2604 8.97997 56.3084 8.85997 56.4044 8.76397C56.5004 8.66797 56.6264 8.61997 56.7824 8.61997H59.9144V5.34397C59.9144 5.17597 59.9684 5.03797 60.0764 4.92997C60.1844 4.82197 60.3224 4.76797 60.4904 4.76797C60.6704 4.76797 60.8084 4.82197 60.9044 4.92997C61.0124 5.02597 61.0664 5.15797 61.0664 5.32597V8.61997H64.2164Z" fill="#313131"/>
</svg>
