<svg width="18" height="18" viewBox="0 0 18 18" fill="none" xmlns="http://www.w3.org/2000/svg">
<path d="M0.0122986 0.4992C0.0127402 0.223371 0.236468 0 0.512298 0H7.68102C7.95747 0 8.18146 0.224346 8.18102 0.5008L8.16952 7.68262C8.16908 7.95845 7.94535 8.18182 7.66952 8.18182H0.500801C0.224346 8.18182 0.000359141 7.95747 0.0008017 7.68102L0.0122986 0.4992Z" fill="#313131"/>
<path d="M0 17.5C0 17.7761 0.223858 18 0.5 18H7.69411C7.97057 18 8.19456 17.7757 8.19411 17.4992L8.18262 10.3174C8.18218 10.0416 7.95845 9.81818 7.68262 9.81818H0.5C0.223857 9.81818 0 10.042 0 10.3182V17.5Z" fill="#313131"/>
<path d="M9.81818 0.5C9.81818 0.223857 10.042 0 10.3182 0H17.5C17.7761 0 18 0.223858 18 0.5V7.68182C18 7.95796 17.7761 8.18182 17.5 8.18182H10.3182C10.042 8.18182 9.81818 7.95796 9.81818 7.68182V0.5Z" fill="#313131"/>
<path d="M9.81818 10.3182C9.81818 10.042 10.042 9.81818 10.3182 9.81818H17.5C17.7761 9.81818 18 10.042 18 10.3182V17.5C18 17.7761 17.7761 18 17.5 18H10.3182C10.042 18 9.81818 17.7761 9.81818 17.5V10.3182Z" fill="#313131"/>
</svg>
