<svg width="18" height="18" viewBox="0 0 18 18" fill="none" xmlns="http://www.w3.org/2000/svg">
<path d="M0.0115021 0.498399C0.0123842 0.222883 0.235982 0 0.511499 0H17.4984C17.7752 0 17.9993 0.224834 17.9984 0.501601L17.9911 2.77433C17.9902 3.04984 17.7666 3.27273 17.4911 3.27273H0.504224C0.227457 3.27273 0.0033394 3.04789 0.00422552 2.77113L0.0115021 0.498399ZM0.500001 8.18182C0.223859 8.18182 0 7.95796 0 7.68182V5.40909C0 5.13295 0.223858 4.90909 0.5 4.90909H17.4869C17.763 4.90909 17.9869 5.13295 17.9869 5.40909V7.68182C17.9869 7.95796 17.763 8.18182 17.4869 8.18182H0.500001Z" fill="#313131"/>
<path d="M0 10.3182C0 10.042 0.223858 9.81818 0.5 9.81818H17.4869C17.763 9.81818 17.9869 10.042 17.9869 10.3182V12.5909C17.9869 12.8671 17.763 13.0909 17.4869 13.0909H0.500001C0.223859 13.0909 0 12.8671 0 12.5909V10.3182Z" fill="#313131"/>
<path d="M0.00200906 17.498C0.000900789 17.7749 0.225081 18 0.502005 18H17.5C17.7761 18 18 17.7761 18 17.5V15.2273C18 14.9511 17.7761 14.7273 17.5 14.7273H0.511101C0.23574 14.7273 0.0122067 14.9499 0.0111047 15.2253L0.00200906 17.498Z" fill="#313131"/>
</svg>
