<svg width="18" height="18" viewBox="0 0 18 18" fill="none" xmlns="http://www.w3.org/2000/svg">
<path d="M0.0115021 0.498399C0.0123842 0.222883 0.235982 0 0.511499 0H17.4984C17.7752 0 17.9993 0.224835 17.9984 0.501601L17.9885 3.59251C17.9876 3.86803 17.764 4.09091 17.4885 4.09091H0.501605C0.224837 4.09091 0.000719847 3.86607 0.00160596 3.58931L0.0115021 0.498399ZM10.3182 9C10.042 9 9.81818 8.77614 9.81818 8.5V5.40909C9.81818 5.13295 10.042 4.90909 10.3182 4.90909H17.5C17.7761 4.90909 18 5.13295 18 5.40909V8.5C18 8.77614 17.7761 9 17.5 9H10.3182ZM0.5 9C0.223857 9 0 8.77614 0 8.5V5.40909C0 5.13295 0.223858 4.90909 0.5 4.90909H7.68182C7.95796 4.90909 8.18182 5.13295 8.18182 5.40909V8.5C8.18182 8.77614 7.95796 9 7.68182 9H0.5Z" fill="#313131"/>
<path d="M0 10.3182C0 10.042 0.223858 9.81818 0.5 9.81818H7.68182C7.95796 9.81818 8.18182 10.042 8.18182 10.3182V13.4091C8.18182 13.6852 7.95796 13.9091 7.68182 13.9091H0.5C0.223857 13.9091 0 13.6852 0 13.4091V10.3182Z" fill="#313131"/>
<path d="M9.81818 10.3182C9.81818 10.042 10.042 9.81818 10.3182 9.81818H17.5C17.7761 9.81818 18 10.042 18 10.3182V13.4091C18 13.6852 17.7761 13.9091 17.5 13.9091H10.3182C10.042 13.9091 9.81818 13.6852 9.81818 13.4091V10.3182Z" fill="#313131"/>
<path d="M0.00200906 17.498C0.000900789 17.7749 0.225081 18 0.502005 18H17.5C17.7761 18 18 17.7761 18 17.5V15.2273C18 14.9511 17.7761 14.7273 17.5 14.7273H0.511101C0.23574 14.7273 0.0122067 14.9499 0.0111047 15.2253L0.00200906 17.498Z" fill="#313131"/>
</svg>
