<svg width="18" height="20" viewBox="0 0 18 20" fill="none" xmlns="http://www.w3.org/2000/svg">
<path d="M18 19V17C18 15.62 17.439 14.368 16.536 13.464C15.633 12.56 14.38 12 13 12H5C3.62 12 2.368 12.561 1.464 13.464C0.56 14.367 0 15.62 0 17V19C0 19.552 0.448 20 1 20C1.552 20 2 19.552 2 19V17C2 16.171 2.335 15.423 2.879 14.879C3.423 14.335 4.171 14 5 14H13C13.829 14 14.577 14.335 15.121 14.879C15.665 15.423 16 16.171 16 17V19C16 19.552 16.448 20 17 20C17.552 20 18 19.552 18 19ZM14 5C14 3.62 13.439 2.368 12.536 1.464C11.633 0.56 10.38 0 9 0C7.62 0 6.368 0.561 5.464 1.464C4.56 2.367 4 3.62 4 5C4 6.38 4.561 7.632 5.464 8.536C6.367 9.44 7.62 10 9 10C10.38 10 11.632 9.439 12.536 8.536C13.44 7.633 14 6.38 14 5ZM12 5C12 5.829 11.665 6.577 11.121 7.121C10.577 7.665 9.829 8 9 8C8.171 8 7.423 7.665 6.879 7.121C6.335 6.577 6 5.829 6 5C6 4.171 6.335 3.423 6.879 2.879C7.423 2.335 8.171 2 9 2C9.829 2 10.577 2.335 11.121 2.879C11.665 3.423 12 4.171 12 5Z" fill="white"/>
</svg>
