<svg width="24" height="21" viewBox="0 0 24 21" fill="none" xmlns="http://www.w3.org/2000/svg">
<path d="M11 10.9999V17.5859L8.70701 15.2929C8.31601 14.9019 7.68301 14.9019 7.29301 15.2929C6.90301 15.6839 6.90201 16.3169 7.29301 16.7069L11.293 20.7069C11.385 20.7989 11.495 20.8729 11.617 20.9239C11.862 21.0249 12.138 21.0249 12.383 20.9239C12.501 20.8749 12.611 20.8029 12.707 20.7069L16.707 16.7069C17.098 16.3159 17.098 15.6829 16.707 15.2929C16.316 14.9029 15.683 14.9019 15.293 15.2929L13 17.5859V10.9999C13 10.4479 12.552 9.99987 12 9.99987C11.448 9.99987 11 10.4479 11 10.9999ZM21.455 17.9079C22.81 16.9549 23.651 15.5409 23.915 14.0299C24.179 12.5189 23.865 10.9039 22.912 9.54887C22.086 8.37487 20.914 7.58587 19.625 7.22487C19.098 7.07787 18.553 7.00186 18.004 6.99987H17.481C16.759 4.94186 15.344 3.28987 13.574 2.24187C11.593 1.06987 9.16201 0.652865 6.75501 1.26987C4.34801 1.88687 2.41701 3.42487 1.24501 5.40587C0.0730085 7.38687 -0.343991 9.81787 0.273009 12.2249C0.644009 13.6709 1.34801 14.9499 2.25601 15.9589C2.62601 16.3689 3.25801 16.4029 3.66801 16.0329C4.07801 15.6629 4.11201 15.0309 3.74201 14.6209C3.05001 13.8519 2.50001 12.8609 2.20901 11.7279C1.72801 9.85487 2.05201 7.96686 2.96501 6.42386C3.87801 4.88086 5.37701 3.68787 7.25001 3.20787C9.12301 2.72787 11.011 3.05087 12.554 3.96387C14.097 4.87687 15.29 6.37586 15.77 8.24886C15.886 8.68386 16.276 8.99987 16.74 8.99987H17.996C18.366 9.00087 18.733 9.05187 19.086 9.15087C19.947 9.39187 20.725 9.91587 21.276 10.6989C21.912 11.6029 22.121 12.6769 21.945 13.6869C21.769 14.6969 21.209 15.6369 20.305 16.2719C19.853 16.5899 19.745 17.2129 20.062 17.6649C20.379 18.1169 21.003 18.2249 21.455 17.9079Z" fill="white"/>
</svg>
